<svg width="168" height="41" viewBox="0 0 168 41" fill="none" xmlns="http://www.w3.org/2000/svg">
<path d="M2.664 37V11.44H13.968C15.144 11.44 16.224 11.68 17.208 12.16C18.216 12.64 19.08 13.288 19.8 14.104C20.544 14.92 21.108 15.832 21.492 16.84C21.9 17.848 22.104 18.88 22.104 19.936C22.104 21.016 21.912 22.06 21.528 23.068C21.168 24.052 20.64 24.916 19.944 25.66C19.248 26.404 18.432 26.98 17.496 27.388L23.328 37H17.856L12.6 28.432H7.632V37H2.664ZM7.632 24.076H13.86C14.484 24.076 15.036 23.896 15.516 23.536C15.996 23.152 16.38 22.648 16.668 22.024C16.956 21.4 17.1 20.704 17.1 19.936C17.1 19.12 16.932 18.412 16.596 17.812C16.26 17.188 15.828 16.696 15.3 16.336C14.796 15.976 14.244 15.796 13.644 15.796H7.632V24.076ZM34.9726 37.36C33.4606 37.36 32.0926 37.108 30.8686 36.604C29.6446 36.076 28.6006 35.368 27.7366 34.48C26.8726 33.568 26.2006 32.536 25.7206 31.384C25.2646 30.208 25.0366 28.972 25.0366 27.676C25.0366 25.876 25.4326 24.232 26.2246 22.744C27.0406 21.256 28.1926 20.068 29.6806 19.18C31.1926 18.268 32.9686 17.812 35.0086 17.812C37.0726 17.812 38.8366 18.268 40.3006 19.18C41.7646 20.068 42.8806 21.256 43.6486 22.744C44.4406 24.208 44.8366 25.792 44.8366 27.496C44.8366 27.784 44.8246 28.084 44.8006 28.396C44.7766 28.684 44.7526 28.924 44.7286 29.116H30.1486C30.2446 30.076 30.5206 30.916 30.9766 31.636C31.4566 32.356 32.0566 32.908 32.7766 33.292C33.5206 33.652 34.3126 33.832 35.1526 33.832C36.1126 33.832 37.0126 33.604 37.8526 33.148C38.7166 32.668 39.3046 32.044 39.6166 31.276L43.7566 32.428C43.3006 33.388 42.6406 34.24 41.7766 34.984C40.9366 35.728 39.9406 36.316 38.7886 36.748C37.6366 37.156 36.3646 37.36 34.9726 37.36ZM30.0406 26.056H39.9046C39.8086 25.096 39.5326 24.268 39.0766 23.572C38.6446 22.852 38.0686 22.3 37.3486 21.916C36.6286 21.508 35.8246 21.304 34.9366 21.304C34.0726 21.304 33.2806 21.508 32.5606 21.916C31.8646 22.3 31.2886 22.852 30.8326 23.572C30.4006 24.268 30.1366 25.096 30.0406 26.056ZM49.5419 37V22.816H47.0579V19.144H49.5419V17.992C49.5419 16.432 49.7939 15.088 50.2979 13.96C50.8259 12.808 51.5579 11.92 52.4939 11.296C53.4539 10.672 54.5699 10.36 55.8419 10.36C56.6099 10.36 57.3779 10.456 58.1459 10.648C58.9379 10.84 59.7179 11.116 60.4859 11.476L59.5139 15.112C59.1539 14.92 58.7339 14.764 58.2539 14.644C57.7739 14.5 57.3179 14.428 56.8859 14.428C56.0699 14.428 55.4459 14.716 55.0139 15.292C54.5819 15.868 54.3659 16.708 54.3659 17.812V19.144H58.9739V22.816H54.3659V37H49.5419ZM70.936 37.36C69.424 37.36 68.056 37.108 66.832 36.604C65.608 36.076 64.564 35.368 63.7 34.48C62.836 33.568 62.164 32.536 61.684 31.384C61.228 30.208 61 28.972 61 27.676C61 25.876 61.396 24.232 62.188 22.744C63.004 21.256 64.156 20.068 65.644 19.18C67.156 18.268 68.932 17.812 70.972 17.812C73.036 17.812 74.8 18.268 76.264 19.18C77.728 20.068 78.844 21.256 79.612 22.744C80.404 24.208 80.8 25.792 80.8 27.496C80.8 27.784 80.788 28.084 80.764 28.396C80.74 28.684 80.716 28.924 80.692 29.116H66.112C66.208 30.076 66.484 30.916 66.94 31.636C67.42 32.356 68.02 32.908 68.74 33.292C69.484 33.652 70.276 33.832 71.116 33.832C72.076 33.832 72.976 33.604 73.816 33.148C74.68 32.668 75.268 32.044 75.58 31.276L79.72 32.428C79.264 33.388 78.604 34.24 77.74 34.984C76.9 35.728 75.904 36.316 74.752 36.748C73.6 37.156 72.328 37.36 70.936 37.36ZM66.004 26.056H75.868C75.772 25.096 75.496 24.268 75.04 23.572C74.608 22.852 74.032 22.3 73.312 21.916C72.592 21.508 71.788 21.304 70.9 21.304C70.036 21.304 69.244 21.508 68.524 21.916C67.828 22.3 67.252 22.852 66.796 23.572C66.364 24.268 66.1 25.096 66.004 26.056ZM95.6908 22.312C94.2268 22.312 92.9188 22.6 91.7668 23.176C90.6148 23.728 89.7868 24.532 89.2828 25.588V37H84.4588V18.136H88.8868V22.168C89.5588 20.872 90.4108 19.852 91.4428 19.108C92.4748 18.364 93.5668 17.956 94.7188 17.884C94.9828 17.884 95.1868 17.884 95.3308 17.884C95.4748 17.884 95.5948 17.896 95.6908 17.92V22.312ZM99.1007 37V18.136H103.925V37H99.1007ZM99.1007 15.508V10.72H103.925V15.508H99.1007ZM107.844 27.568C107.844 25.744 108.204 24.1 108.924 22.636C109.644 21.148 110.64 19.972 111.912 19.108C113.184 18.244 114.636 17.812 116.268 17.812C117.66 17.812 118.908 18.16 120.012 18.856C121.14 19.528 122.016 20.392 122.64 21.448V10.72H127.464V31.6C127.464 32.104 127.548 32.464 127.716 32.68C127.884 32.896 128.172 33.028 128.58 33.076V37C127.74 37.168 127.056 37.252 126.528 37.252C125.664 37.252 124.944 37.036 124.368 36.604C123.816 36.172 123.504 35.608 123.432 34.912L123.36 33.724C122.664 34.9 121.716 35.8 120.516 36.424C119.34 37.048 118.104 37.36 116.808 37.36C115.512 37.36 114.312 37.108 113.208 36.604C112.128 36.1 111.18 35.404 110.364 34.516C109.572 33.628 108.948 32.596 108.492 31.42C108.06 30.22 107.844 28.936 107.844 27.568ZM122.64 30.088V25.588C122.4 24.892 122.016 24.268 121.488 23.716C120.96 23.164 120.372 22.732 119.724 22.42C119.076 22.084 118.428 21.916 117.78 21.916C117.036 21.916 116.364 22.072 115.764 22.384C115.164 22.696 114.636 23.116 114.18 23.644C113.748 24.172 113.412 24.784 113.172 25.48C112.956 26.176 112.848 26.908 112.848 27.676C112.848 28.444 112.968 29.176 113.208 29.872C113.472 30.544 113.844 31.132 114.324 31.636C114.804 32.14 115.356 32.536 115.98 32.824C116.628 33.112 117.324 33.256 118.068 33.256C118.524 33.256 118.98 33.184 119.436 33.04C119.916 32.872 120.36 32.656 120.768 32.392C121.2 32.104 121.572 31.768 121.884 31.384C122.22 30.976 122.472 30.544 122.64 30.088ZM158.604 37.36C156.996 37.36 155.46 37.096 153.996 36.568C152.532 36.04 151.272 35.26 150.216 34.228L151.944 31.096C153.072 32.008 154.176 32.68 155.256 33.112C156.36 33.544 157.416 33.76 158.424 33.76C159.36 33.76 160.104 33.592 160.656 33.256C161.232 32.92 161.52 32.416 161.52 31.744C161.52 31.288 161.364 30.94 161.052 30.7C160.74 30.436 160.284 30.208 159.684 30.016C159.108 29.824 158.4 29.608 157.56 29.368C156.168 28.912 155.004 28.468 154.068 28.036C153.132 27.604 152.424 27.064 151.944 26.416C151.488 25.744 151.26 24.892 151.26 23.86C151.26 22.612 151.572 21.544 152.196 20.656C152.844 19.744 153.732 19.036 154.86 18.532C156.012 18.028 157.356 17.776 158.892 17.776C160.236 17.776 161.508 17.992 162.708 18.424C163.908 18.832 165 19.504 165.984 20.44L164.04 23.5C163.08 22.756 162.168 22.216 161.304 21.88C160.44 21.52 159.564 21.34 158.676 21.34C158.172 21.34 157.692 21.4 157.236 21.52C156.804 21.64 156.444 21.844 156.156 22.132C155.892 22.396 155.76 22.78 155.76 23.284C155.76 23.74 155.88 24.1 156.12 24.364C156.384 24.604 156.768 24.82 157.272 25.012C157.8 25.204 158.436 25.42 159.18 25.66C160.692 26.092 161.964 26.536 162.996 26.992C164.052 27.448 164.844 28.012 165.372 28.684C165.9 29.332 166.164 30.232 166.164 31.384C166.164 33.256 165.48 34.72 164.112 35.776C162.744 36.832 160.908 37.36 158.604 37.36Z" fill="white"/>
<path d="M143 35.3957C144.333 35.3957 145.667 34 145.667 34L149 38.187C149 40.2805 147 40.2805 146.333 39.5826L143.667 36.0935" stroke="white" stroke-width="0.5"/>
<path d="M148.51 28.0005C148.515 32.6949 144.714 36.5047 140.02 36.51C135.325 36.5152 131.515 32.7139 131.51 28.0195C131.505 23.325 135.306 19.5152 140.001 19.51C144.695 19.5047 148.505 23.3061 148.51 28.0005Z" stroke="white"/>
<circle cx="140" cy="28" r="7.25" stroke="white" stroke-width="0.5"/>
<path d="M4.81081 9.30031C3.24587 10.7753 5.9104 12.3817 6.95766 12.4204L11.4613 13.6669C13.5924 14.7298 15.8128 14.0996 17.9853 12.6491C21.25 10.5758 19.6469 10.3243 16.9704 8.51283M4.81081 9.30031C4.69397 8.73121 4.5434 8.65813 5.03408 8.11348M4.81081 9.30031C4.89917 10.0976 5.11659 10.1149 5.27175 10.203M16.9704 8.51283C16.9519 7.67575 16.6815 7.74161 16.425 7.76421M16.9704 8.51283C17.052 8.83711 17.076 9.24727 17.2048 10.0214L16.852 10.0637M16.425 7.76421C16.252 8.02181 16.4849 8.7896 16.852 10.0637M16.425 7.76421C16.3585 7.37439 16.2373 6.87794 15.849 6.13251M11.0061 3.01328C8.72512 2.24772 8.12506 3.06663 7.31674 3.89832M11.0061 3.01328C12.4821 3.50864 14.8325 6.97698 15.1291 7.76143C15.9482 7.74627 16.3912 9.10168 16.6814 10.3199M11.0061 3.01328C13.1091 2.14846 15.0468 4.20596 15.849 6.13251M11.0061 3.01328C13.0018 2.82906 14.0235 4.57748 15.849 6.13251M7.31674 3.89832C7.18713 4.03169 6.93544 4.1687 6.72194 4.44936M7.31674 3.89832C10.541 1.84814 13.5461 7.13826 14.0249 8.17908C12.71 9.12726 13.6709 11.0552 13.8613 12.0867M6.72194 4.44936C6.9919 4.35762 9.66068 4.31015 10.1385 8.91157C8.69574 7.827 6.40733 3.3573 4.98571 7.6113M6.72194 4.44936C4.95929 5.04829 4.90193 6.55752 4.98571 7.6113M5.03408 8.11348C5.01919 7.96474 5.0003 7.79493 4.98571 7.6113M5.03408 8.11348C4.95608 8.7992 4.85858 9.15106 5.27175 10.203M16.6814 10.3199C16.7314 10.5299 16.7769 10.7359 16.819 10.9301C15.6863 11.5759 14.2997 12.5254 13.8884 12.2831C13.8835 12.2221 13.8742 12.1564 13.8613 12.0867M16.6814 10.3199L16.852 10.0637M10.2844 12.4837C10.0884 11.8715 10.0725 10.6444 10.68 10.6689C11.0809 10.685 12.0449 10.4205 12.0868 11.1382L12.3411 12.3177M10.2844 12.4837C10.7615 12.6356 11.895 12.625 12.4022 12.6007L12.3411 12.3177M10.2844 12.4837C8.97125 12.5437 7.65614 12.181 7.03183 11.9013M12.3411 12.3177C12.6449 12.4623 13.6411 12.2828 13.8613 12.0867M7.03183 11.9013C6.6273 12.1319 5.93918 11.7296 5.78158 11.6076C5.74294 11.4734 5.69758 11.2888 5.66321 11.0923M7.03183 11.9013L6.93628 10.9492C6.90678 10.1184 6.50925 10.2185 6.17192 10.0606C5.55594 9.77234 5.55767 10.4886 5.66321 11.0923M5.66321 11.0923C5.49866 10.7464 5.37059 10.4546 5.27175 10.203" stroke="white" stroke-width="0.5"/>
</svg>
